<svg xmlns="http://www.w3.org/2000/svg" xmlns:xlink="http://www.w3.org/1999/xlink" width="369" zoomAndPan="magnify" viewBox="0 0 276.75 74.999997" height="100" preserveAspectRatio="xMidYMid meet" version="1.0"><defs><g/><clipPath id="e3a75496c7"><path d="M 30.160156 9.519531 L 88.800781 9.519531 L 88.800781 68.070312 L 30.160156 68.070312 Z M 30.160156 9.519531 " clip-rule="nonzero"/></clipPath></defs><g clip-path="url(#e3a75496c7)"><path fill="#ff6900" d="M 65.34375 9.519531 L 53.617188 9.519531 L 53.617188 27.175781 C 53.609375 27.558594 53.566406 27.933594 53.488281 28.304688 C 53.410156 28.679688 53.292969 29.039062 53.144531 29.390625 C 52.996094 29.738281 52.8125 30.070312 52.597656 30.386719 C 52.382812 30.699219 52.136719 30.992188 51.867188 31.257812 C 51.59375 31.523438 51.300781 31.761719 50.980469 31.972656 C 50.664062 32.183594 50.328125 32.359375 49.976562 32.503906 C 49.625 32.648438 49.257812 32.753906 48.886719 32.828125 C 48.511719 32.902344 48.132812 32.941406 47.753906 32.9375 L 30.160156 32.9375 L 30.160156 44.648438 L 42.894531 44.648438 C 44.449219 44.648438 45.945312 44.351562 47.382812 43.757812 C 48.820312 43.164062 50.085938 42.316406 51.1875 41.21875 L 61.910156 30.515625 C 63.007812 29.417969 63.855469 28.148438 64.453125 26.714844 C 65.046875 25.28125 65.34375 23.789062 65.34375 22.234375 Z M 53.621094 68.070312 L 65.347656 68.070312 L 65.347656 50.410156 C 65.355469 50.03125 65.398438 49.65625 65.476562 49.28125 C 65.558594 48.910156 65.671875 48.550781 65.820312 48.199219 C 65.972656 47.851562 66.15625 47.519531 66.371094 47.203125 C 66.585938 46.890625 66.828125 46.597656 67.097656 46.332031 C 67.371094 46.066406 67.667969 45.828125 67.984375 45.617188 C 68.300781 45.40625 68.636719 45.230469 68.992188 45.085938 C 69.34375 44.941406 69.707031 44.832031 70.082031 44.761719 C 70.453125 44.6875 70.832031 44.648438 71.214844 44.648438 L 88.804688 44.648438 L 88.804688 32.9375 L 76.070312 32.9375 C 74.515625 32.9375 73.019531 33.234375 71.582031 33.832031 C 70.144531 34.425781 68.878906 35.269531 67.777344 36.367188 L 57.054688 47.074219 C 55.957031 48.171875 55.109375 49.4375 54.511719 50.875 C 53.917969 52.308594 53.621094 53.800781 53.621094 55.355469 Z M 53.621094 68.070312 " fill-opacity="1" fill-rule="nonzero"/></g><g fill="#1e2939" fill-opacity="1"><g transform="translate(104.620298, 55.529906)"><g><path d="M 11.0625 -5.875 L 23.234375 -5.875 L 23.234375 0 L 3.65625 0 L 3.65625 -36.953125 L 11.0625 -36.953125 Z M 11.0625 -5.875 "/></g></g></g><g fill="#1e2939" fill-opacity="1"><g transform="translate(128.916369, 55.529906)"><g><path d="M 7.40625 -32.828125 C 6.101562 -32.828125 5.019531 -33.238281 4.15625 -34.0625 C 3.289062 -34.894531 2.859375 -35.925781 2.859375 -37.15625 C 2.859375 -38.394531 3.289062 -39.425781 4.15625 -40.25 C 5.019531 -41.082031 6.101562 -41.5 7.40625 -41.5 C 8.71875 -41.5 9.804688 -41.082031 10.671875 -40.25 C 11.535156 -39.425781 11.96875 -38.394531 11.96875 -37.15625 C 11.96875 -35.925781 11.535156 -34.894531 10.671875 -34.0625 C 9.804688 -33.238281 8.71875 -32.828125 7.40625 -32.828125 Z M 11.0625 -29.328125 L 11.0625 0 L 3.65625 0 L 3.65625 -29.328125 Z M 11.0625 -29.328125 "/></g></g></g><g fill="#1e2939" fill-opacity="1"><g transform="translate(143.631633, 55.529906)"><g><path d="M 14.875 0.46875 C 12.476562 0.46875 10.328125 0.0351562 8.421875 -0.828125 C 6.515625 -1.691406 5.003906 -2.863281 3.890625 -4.34375 C 2.773438 -5.820312 2.164062 -7.460938 2.0625 -9.265625 L 9.53125 -9.265625 C 9.664062 -8.128906 10.21875 -7.191406 11.1875 -6.453125 C 12.164062 -5.710938 13.378906 -5.34375 14.828125 -5.34375 C 16.234375 -5.34375 17.332031 -5.625 18.125 -6.1875 C 18.925781 -6.757812 19.328125 -7.484375 19.328125 -8.359375 C 19.328125 -9.316406 18.835938 -10.03125 17.859375 -10.5 C 16.890625 -10.976562 15.347656 -11.5 13.234375 -12.0625 C 11.046875 -12.59375 9.253906 -13.140625 7.859375 -13.703125 C 6.460938 -14.273438 5.257812 -15.140625 4.25 -16.296875 C 3.25 -17.460938 2.75 -19.035156 2.75 -21.015625 C 2.75 -22.640625 3.21875 -24.117188 4.15625 -25.453125 C 5.09375 -26.796875 6.429688 -27.851562 8.171875 -28.625 C 9.921875 -29.40625 11.976562 -29.796875 14.34375 -29.796875 C 17.84375 -29.796875 20.628906 -28.921875 22.703125 -27.171875 C 24.785156 -25.429688 25.9375 -23.078125 26.15625 -20.109375 L 19.0625 -20.109375 C 18.957031 -21.273438 18.472656 -22.203125 17.609375 -22.890625 C 16.742188 -23.578125 15.585938 -23.921875 14.140625 -23.921875 C 12.796875 -23.921875 11.757812 -23.675781 11.03125 -23.1875 C 10.3125 -22.695312 9.953125 -22.007812 9.953125 -21.125 C 9.953125 -20.132812 10.445312 -19.382812 11.4375 -18.875 C 12.425781 -18.363281 13.960938 -17.84375 16.046875 -17.3125 C 18.160156 -16.78125 19.90625 -16.234375 21.28125 -15.671875 C 22.65625 -15.109375 23.84375 -14.234375 24.84375 -13.046875 C 25.851562 -11.867188 26.378906 -10.304688 26.421875 -8.359375 C 26.421875 -6.671875 25.953125 -5.15625 25.015625 -3.8125 C 24.078125 -2.46875 22.734375 -1.414062 20.984375 -0.65625 C 19.242188 0.09375 17.207031 0.46875 14.875 0.46875 Z M 14.875 0.46875 "/></g></g></g><g fill="#1e2939" fill-opacity="1"><g transform="translate(172.479908, 55.529906)"><g><path d="M 12.28125 -23.234375 L 12.28125 -9.046875 C 12.28125 -8.054688 12.515625 -7.34375 12.984375 -6.90625 C 13.460938 -6.46875 14.269531 -6.25 15.40625 -6.25 L 18.84375 -6.25 L 18.84375 0 L 14.1875 0 C 7.9375 0 4.8125 -3.035156 4.8125 -9.109375 L 4.8125 -23.234375 L 1.328125 -23.234375 L 1.328125 -29.328125 L 4.8125 -29.328125 L 4.8125 -36.578125 L 12.28125 -36.578125 L 12.28125 -29.328125 L 18.84375 -29.328125 L 18.84375 -23.234375 Z M 12.28125 -23.234375 "/></g></g></g><g fill="#1e2939" fill-opacity="1"><g transform="translate(193.017759, 55.529906)"><g><path d="M 7.40625 -32.828125 C 6.101562 -32.828125 5.019531 -33.238281 4.15625 -34.0625 C 3.289062 -34.894531 2.859375 -35.925781 2.859375 -37.15625 C 2.859375 -38.394531 3.289062 -39.425781 4.15625 -40.25 C 5.019531 -41.082031 6.101562 -41.5 7.40625 -41.5 C 8.71875 -41.5 9.804688 -41.082031 10.671875 -40.25 C 11.535156 -39.425781 11.96875 -38.394531 11.96875 -37.15625 C 11.96875 -35.925781 11.535156 -34.894531 10.671875 -34.0625 C 9.804688 -33.238281 8.71875 -32.828125 7.40625 -32.828125 Z M 11.0625 -29.328125 L 11.0625 0 L 3.65625 0 L 3.65625 -29.328125 Z M 11.0625 -29.328125 "/></g></g></g><g fill="#1e2939" fill-opacity="1"><g transform="translate(207.733023, 55.529906)"><g><path d="M 17.09375 -23.234375 L 11.96875 -23.234375 L 11.96875 0 L 4.453125 0 L 4.453125 -23.234375 L 1.109375 -23.234375 L 1.109375 -29.328125 L 4.453125 -29.328125 L 4.453125 -30.8125 C 4.453125 -34.40625 5.472656 -37.050781 7.515625 -38.75 C 9.566406 -40.445312 12.65625 -41.238281 16.78125 -41.125 L 16.78125 -34.890625 C 14.976562 -34.921875 13.722656 -34.617188 13.015625 -33.984375 C 12.316406 -33.347656 11.96875 -32.203125 11.96875 -30.546875 L 11.96875 -29.328125 L 17.09375 -29.328125 Z M 17.09375 -23.234375 "/></g></g></g><g fill="#1e2939" fill-opacity="1"><g transform="translate(225.994777, 55.529906)"><g><path d="M 31.703125 -29.328125 L 13.546875 13.875 L 5.671875 13.875 L 12.015625 -0.734375 L 0.265625 -29.328125 L 8.578125 -29.328125 L 16.140625 -8.84375 L 23.828125 -29.328125 Z M 31.703125 -29.328125 "/></g></g></g></svg>