<svg xmlns="http://www.w3.org/2000/svg" xmlns:xlink="http://www.w3.org/1999/xlink" width="369" zoomAndPan="magnify" viewBox="0 0 276.75 74.999997" height="100" preserveAspectRatio="xMidYMid meet" version="1.0"><defs><g/><clipPath id="c8077494cc"><path d="M 29.113281 9.519531 L 87.753906 9.519531 L 87.753906 68.070312 L 29.113281 68.070312 Z M 29.113281 9.519531 " clip-rule="nonzero"/></clipPath><clipPath id="e126e02e4b"><path d="M 101 0.0351562 L 258 0.0351562 L 258 74.964844 L 101 74.964844 Z M 101 0.0351562 " clip-rule="nonzero"/></clipPath><clipPath id="4ff91fc0f6"><rect x="0" width="157" y="0" height="75"/></clipPath></defs><g clip-path="url(#c8077494cc)"><path fill="#ff6900" d="M 64.296875 9.519531 L 52.570312 9.519531 L 52.570312 27.175781 C 52.5625 27.558594 52.519531 27.933594 52.441406 28.304688 C 52.359375 28.679688 52.246094 29.039062 52.097656 29.390625 C 51.945312 29.738281 51.761719 30.070312 51.546875 30.386719 C 51.332031 30.699219 51.089844 30.992188 50.820312 31.257812 C 50.546875 31.523438 50.253906 31.761719 49.933594 31.972656 C 49.617188 32.183594 49.28125 32.359375 48.925781 32.503906 C 48.574219 32.648438 48.210938 32.753906 47.835938 32.828125 C 47.464844 32.902344 47.085938 32.941406 46.703125 32.9375 L 29.113281 32.9375 L 29.113281 44.648438 L 41.847656 44.648438 C 43.402344 44.648438 44.898438 44.351562 46.335938 43.757812 C 47.769531 43.164062 49.039062 42.316406 50.136719 41.21875 L 60.863281 30.515625 C 61.960938 29.417969 62.808594 28.148438 63.402344 26.714844 C 64 25.28125 64.296875 23.789062 64.296875 22.234375 Z M 52.574219 68.070312 L 64.300781 68.070312 L 64.300781 50.410156 C 64.308594 50.03125 64.351562 49.65625 64.429688 49.28125 C 64.507812 48.910156 64.625 48.550781 64.773438 48.199219 C 64.925781 47.851562 65.105469 47.519531 65.320312 47.203125 C 65.535156 46.890625 65.78125 46.597656 66.050781 46.332031 C 66.324219 46.066406 66.617188 45.828125 66.9375 45.617188 C 67.253906 45.40625 67.589844 45.230469 67.941406 45.085938 C 68.296875 44.941406 68.660156 44.832031 69.03125 44.761719 C 69.40625 44.6875 69.785156 44.648438 70.164062 44.648438 L 87.757812 44.648438 L 87.757812 32.9375 L 75.023438 32.9375 C 73.46875 32.9375 71.972656 33.234375 70.535156 33.832031 C 69.097656 34.425781 67.828125 35.269531 66.730469 36.367188 L 56.007812 47.074219 C 54.90625 48.171875 54.058594 49.4375 53.464844 50.875 C 52.871094 52.308594 52.574219 53.800781 52.574219 55.355469 Z M 52.574219 68.070312 " fill-opacity="1" fill-rule="nonzero"/></g><g clip-path="url(#e126e02e4b)"><g transform="matrix(1, 0, 0, 1, 101, 0.000000000000001887)"><g clip-path="url(#4ff91fc0f6)"><g fill="#ff6900" fill-opacity="1"><g transform="translate(0.885985, 54.972782)"><g><path d="M 11.0625 -5.875 L 23.234375 -5.875 L 23.234375 0 L 3.65625 0 L 3.65625 -36.953125 L 11.0625 -36.953125 Z M 11.0625 -5.875 "/></g></g></g><g fill="#ff6900" fill-opacity="1"><g transform="translate(25.181255, 54.972782)"><g><path d="M 7.40625 -32.828125 C 6.101562 -32.828125 5.019531 -33.238281 4.15625 -34.0625 C 3.289062 -34.894531 2.859375 -35.925781 2.859375 -37.15625 C 2.859375 -38.394531 3.289062 -39.425781 4.15625 -40.25 C 5.019531 -41.082031 6.101562 -41.5 7.40625 -41.5 C 8.71875 -41.5 9.804688 -41.082031 10.671875 -40.25 C 11.535156 -39.425781 11.96875 -38.394531 11.96875 -37.15625 C 11.96875 -35.925781 11.535156 -34.894531 10.671875 -34.0625 C 9.804688 -33.238281 8.71875 -32.828125 7.40625 -32.828125 Z M 11.0625 -29.328125 L 11.0625 0 L 3.65625 0 L 3.65625 -29.328125 Z M 11.0625 -29.328125 "/></g></g></g><g fill="#ff6900" fill-opacity="1"><g transform="translate(39.896029, 54.972782)"><g><path d="M 14.875 0.46875 C 12.476562 0.46875 10.328125 0.0351562 8.421875 -0.828125 C 6.515625 -1.691406 5.003906 -2.863281 3.890625 -4.34375 C 2.773438 -5.820312 2.164062 -7.460938 2.0625 -9.265625 L 9.53125 -9.265625 C 9.664062 -8.128906 10.21875 -7.191406 11.1875 -6.453125 C 12.164062 -5.710938 13.378906 -5.34375 14.828125 -5.34375 C 16.234375 -5.34375 17.332031 -5.625 18.125 -6.1875 C 18.925781 -6.757812 19.328125 -7.484375 19.328125 -8.359375 C 19.328125 -9.316406 18.835938 -10.03125 17.859375 -10.5 C 16.890625 -10.976562 15.347656 -11.5 13.234375 -12.0625 C 11.046875 -12.59375 9.253906 -13.140625 7.859375 -13.703125 C 6.460938 -14.273438 5.257812 -15.140625 4.25 -16.296875 C 3.25 -17.460938 2.75 -19.035156 2.75 -21.015625 C 2.75 -22.640625 3.21875 -24.117188 4.15625 -25.453125 C 5.09375 -26.796875 6.429688 -27.851562 8.171875 -28.625 C 9.921875 -29.40625 11.976562 -29.796875 14.34375 -29.796875 C 17.84375 -29.796875 20.628906 -28.921875 22.703125 -27.171875 C 24.785156 -25.429688 25.9375 -23.078125 26.15625 -20.109375 L 19.0625 -20.109375 C 18.957031 -21.273438 18.472656 -22.203125 17.609375 -22.890625 C 16.742188 -23.578125 15.585938 -23.921875 14.140625 -23.921875 C 12.796875 -23.921875 11.757812 -23.675781 11.03125 -23.1875 C 10.3125 -22.695312 9.953125 -22.007812 9.953125 -21.125 C 9.953125 -20.132812 10.445312 -19.382812 11.4375 -18.875 C 12.425781 -18.363281 13.960938 -17.84375 16.046875 -17.3125 C 18.160156 -16.78125 19.90625 -16.234375 21.28125 -15.671875 C 22.65625 -15.109375 23.84375 -14.234375 24.84375 -13.046875 C 25.851562 -11.867188 26.378906 -10.304688 26.421875 -8.359375 C 26.421875 -6.671875 25.953125 -5.15625 25.015625 -3.8125 C 24.078125 -2.46875 22.734375 -1.414062 20.984375 -0.65625 C 19.242188 0.09375 17.207031 0.46875 14.875 0.46875 Z M 14.875 0.46875 "/></g></g></g><g fill="#ff6900" fill-opacity="1"><g transform="translate(68.74335, 54.972782)"><g><path d="M 12.28125 -23.234375 L 12.28125 -9.046875 C 12.28125 -8.054688 12.515625 -7.34375 12.984375 -6.90625 C 13.460938 -6.46875 14.269531 -6.25 15.40625 -6.25 L 18.84375 -6.25 L 18.84375 0 L 14.1875 0 C 7.9375 0 4.8125 -3.035156 4.8125 -9.109375 L 4.8125 -23.234375 L 1.328125 -23.234375 L 1.328125 -29.328125 L 4.8125 -29.328125 L 4.8125 -36.578125 L 12.28125 -36.578125 L 12.28125 -29.328125 L 18.84375 -29.328125 L 18.84375 -23.234375 Z M 12.28125 -23.234375 "/></g></g></g><g fill="#ff6900" fill-opacity="1"><g transform="translate(89.280512, 54.972782)"><g><path d="M 7.40625 -32.828125 C 6.101562 -32.828125 5.019531 -33.238281 4.15625 -34.0625 C 3.289062 -34.894531 2.859375 -35.925781 2.859375 -37.15625 C 2.859375 -38.394531 3.289062 -39.425781 4.15625 -40.25 C 5.019531 -41.082031 6.101562 -41.5 7.40625 -41.5 C 8.71875 -41.5 9.804688 -41.082031 10.671875 -40.25 C 11.535156 -39.425781 11.96875 -38.394531 11.96875 -37.15625 C 11.96875 -35.925781 11.535156 -34.894531 10.671875 -34.0625 C 9.804688 -33.238281 8.71875 -32.828125 7.40625 -32.828125 Z M 11.0625 -29.328125 L 11.0625 0 L 3.65625 0 L 3.65625 -29.328125 Z M 11.0625 -29.328125 "/></g></g></g><g fill="#ff6900" fill-opacity="1"><g transform="translate(103.995286, 54.972782)"><g><path d="M 17.09375 -23.234375 L 11.96875 -23.234375 L 11.96875 0 L 4.453125 0 L 4.453125 -23.234375 L 1.109375 -23.234375 L 1.109375 -29.328125 L 4.453125 -29.328125 L 4.453125 -30.8125 C 4.453125 -34.40625 5.472656 -37.050781 7.515625 -38.75 C 9.566406 -40.445312 12.65625 -41.238281 16.78125 -41.125 L 16.78125 -34.890625 C 14.976562 -34.921875 13.722656 -34.617188 13.015625 -33.984375 C 12.316406 -33.347656 11.96875 -32.203125 11.96875 -30.546875 L 11.96875 -29.328125 L 17.09375 -29.328125 Z M 17.09375 -23.234375 "/></g></g></g><g fill="#ff6900" fill-opacity="1"><g transform="translate(122.256422, 54.972782)"><g><path d="M 31.703125 -29.328125 L 13.546875 13.875 L 5.671875 13.875 L 12.015625 -0.734375 L 0.265625 -29.328125 L 8.578125 -29.328125 L 16.140625 -8.84375 L 23.828125 -29.328125 Z M 31.703125 -29.328125 "/></g></g></g></g></g></g></svg>